<svg xmlns="http://www.w3.org/2000/svg" width="1080" height="1920" viewBox="0 0 1080 1920"><rect width="1080" height="1920" fill="#ffffff"/>
<rect width="1080" height="1920" fill="#fce7f3" opacity=".42"/>
<circle cx="170" cy="250" r="260" fill="#db2777" opacity="0.24"/>
<circle cx="930" cy="1610" r="320" fill="#831843" opacity="0.24"/>
<g transform="translate(284 160) scale(1.0)" opacity=".58"><path d="M54 256 C120 80 392 80 486 256 C392 432 120 432 54 256Z" fill="none" stroke="#fce7f3" stroke-width="4" opacity=".55"/>
<g transform="translate(256 256)"><path d="M-168 0 H168" stroke="#831843" stroke-width="4" stroke-linecap="round"/><circle cx="-72" cy="0" r="12" fill="#db2777"/><circle cx="0" cy="0" r="18" fill="#fce7f3" stroke="#831843" stroke-width="3"/><circle cx="72" cy="0" r="12" fill="#db2777"/><path d="M-48 -42 H48 M-48 42 H48" stroke="#831843" stroke-width="2" opacity=".55"/></g></g>
<g transform="translate(796 1760) rotate(180) scale(.72)" opacity=".42"><path d="M54 256 C120 80 392 80 486 256 C392 432 120 432 54 256Z" fill="none" stroke="#fce7f3" stroke-width="4" opacity=".55"/>
<g transform="translate(256 256)"><path d="M-168 0 H168" stroke="#831843" stroke-width="4" stroke-linecap="round"/><circle cx="-72" cy="0" r="12" fill="#db2777"/><circle cx="0" cy="0" r="18" fill="#fce7f3" stroke="#831843" stroke-width="3"/><circle cx="72" cy="0" r="12" fill="#db2777"/><path d="M-48 -42 H48 M-48 42 H48" stroke="#831843" stroke-width="2" opacity=".55"/></g></g>
<path d="M0 1460 C260 1320 520 1580 1080 1400 V1920 H0Z" fill="#831843" opacity=".08"/></svg>
