<svg xmlns="http://www.w3.org/2000/svg" width="1080" height="1920" viewBox="0 0 1080 1920"><rect width="1080" height="1920" fill="#ffffff"/>
<rect width="1080" height="1920" fill="#ccfbf1" opacity=".42"/>
<circle cx="170" cy="250" r="260" fill="#14b8a6" opacity="0.1"/>
<circle cx="930" cy="1610" r="320" fill="#0f766e" opacity="0.1"/>
<g transform="translate(284 160) scale(1.0)" opacity=".58"><path d="M26 256 C120 80 392 80 486 256 C392 432 120 432 26 256Z" fill="none" stroke="#ccfbf1" stroke-width="4" opacity=".55"/>
<g transform="translate(256 256)"><ellipse cx="0" cy="-62" rx="24" ry="58" fill="#ccfbf1" stroke="#0f766e" stroke-width="4" transform="rotate(0)"/><ellipse cx="0" cy="-62" rx="24" ry="58" fill="#ccfbf1" stroke="#0f766e" stroke-width="4" transform="rotate(72)"/><ellipse cx="0" cy="-62" rx="24" ry="58" fill="#ccfbf1" stroke="#0f766e" stroke-width="4" transform="rotate(144)"/><ellipse cx="0" cy="-62" rx="24" ry="58" fill="#ccfbf1" stroke="#0f766e" stroke-width="4" transform="rotate(216)"/><ellipse cx="0" cy="-62" rx="24" ry="58" fill="#ccfbf1" stroke="#0f766e" stroke-width="4" transform="rotate(288)"/><circle r="36" fill="#14b8a6" opacity=".9"/><path d="M-142 80 C-80 38 -32 38 0 92 C32 38 80 38 142 80" fill="none" stroke="#0f766e" stroke-width="5" stroke-linecap="round"/></g></g>
<g transform="translate(796 1760) rotate(180) scale(.72)" opacity=".42"><path d="M26 256 C120 80 392 80 486 256 C392 432 120 432 26 256Z" fill="none" stroke="#ccfbf1" stroke-width="4" opacity=".55"/>
<g transform="translate(256 256)"><ellipse cx="0" cy="-62" rx="24" ry="58" fill="#ccfbf1" stroke="#0f766e" stroke-width="4" transform="rotate(0)"/><ellipse cx="0" cy="-62" rx="24" ry="58" fill="#ccfbf1" stroke="#0f766e" stroke-width="4" transform="rotate(72)"/><ellipse cx="0" cy="-62" rx="24" ry="58" fill="#ccfbf1" stroke="#0f766e" stroke-width="4" transform="rotate(144)"/><ellipse cx="0" cy="-62" rx="24" ry="58" fill="#ccfbf1" stroke="#0f766e" stroke-width="4" transform="rotate(216)"/><ellipse cx="0" cy="-62" rx="24" ry="58" fill="#ccfbf1" stroke="#0f766e" stroke-width="4" transform="rotate(288)"/><circle r="36" fill="#14b8a6" opacity=".9"/><path d="M-142 80 C-80 38 -32 38 0 92 C32 38 80 38 142 80" fill="none" stroke="#0f766e" stroke-width="5" stroke-linecap="round"/></g></g>
<path d="M0 1460 C260 1320 520 1580 1080 1400 V1920 H0Z" fill="#0f766e" opacity=".08"/></svg>
